<?xml version="1.0" encoding="UTF-8"?>
<svg width="481px" height="512px" viewBox="0 0 481 512" version="1.1" xmlns="http://www.w3.org/2000/svg" xmlns:xlink="http://www.w3.org/1999/xlink">
    <!-- Generator: Sketch 50.2 (55047) - http://www.bohemiancoding.com/sketch -->
    <title>bell</title>
    <desc>Created with Sketch.</desc>
    <defs></defs>
    <g id="Page-1" stroke="none" stroke-width="1" fill="none" fill-rule="evenodd" fill-opacity="0.680000007">
        <g id="bell" fill="#000000">
            <path d="M450.98464,447.9997 L300.396505,447.9997 C300.396505,483.345901 273.428264,511.999657 240.161252,511.999657 C206.89424,511.999657 179.925998,483.345901 179.925998,447.9997 L29.3378633,447.9997 C16.6593539,447.649564 5.67226292,438.569954 2.23199906,425.599715 C-1.39596287,412.996855 2.1196581,399.300581 11.2672871,390.399739 C41.5059446,366.140946 59.3332409,328.257942 59.4554902,287.999807 L59.4554902,191.999872 C59.4554923,85.9612721 140.360217,4.04609747e-06 240.161252,4.04609747e-06 C339.962286,4.04609748e-06 420.867011,85.9612721 420.867013,191.999872 L420.867013,287.999807 C420.989262,328.257942 438.816559,366.140946 469.055216,390.399739 C479.122251,398.676293 482.808872,413.038755 478.090504,425.599715 C474.65024,438.569954 463.663149,447.649564 450.98464,447.9997 Z" id="Path_677"></path>
        </g>
    </g>
</svg>