<svg xmlns="http://www.w3.org/2000/svg" viewBox="0 0 432.755 512">
  <path id="Union_6" data-name="Union 6" d="M13.69,315.471v-2.943c31.735-55.908,80.781-97.1,141.366-114.759h2.885c23.08,23.54,63.471,50.023,72.126,55.908,8.655-5.885,43.276-29.425,72.126-55.908h2.885c60.585,20.6,109.631,58.851,141.366,114.759v2.943C400.284,394.919,319.5,442,230.067,442S56.965,391.977,13.69,315.471Zm317.354,14.713s2.885,5.885,2.885,8.828,2.885,8.827,2.885,11.77c0,5.885,2.885,5.885,2.885,5.885,0-2.942,2.885-5.885,5.77-20.6v-5.885a22.712,22.712,0,0,1,5.77-14.713c5.77-5.885,5.77-14.713,5.77-23.54,0-5.885-2.885-8.828-8.655-11.77H333.928c-2.885,0-5.77,2.943-5.77,2.943h-5.77s-2.885-2.943-5.77-2.943c-5.77-2.943-8.655-2.943-14.425,0a40.547,40.547,0,0,0-8.655,11.77c0,8.828,0,17.655,5.77,23.54,2.885,5.885,5.77,8.828,5.77,14.713v5.885c0,14.713,2.885,20.6,5.77,20.6,0,0,2.885-2.942,2.885-5.885s2.885-5.885,2.885-11.77c0-2.943,0-5.885,2.885-8.828s2.885-2.943,5.77-2.943S331.044,327.241,331.044,330.184Zm7.916-17.493v-5.3c-.586-.049-1.153-.136-1.664-.224a5.159,5.159,0,0,1-2.815-.526l-.768-3.682a13.8,13.8,0,0,0,2.688,1.184,8.671,8.671,0,0,0,3.327.657,3.843,3.843,0,0,0,1.28-.132,1.321,1.321,0,0,0,.768-.658,1.276,1.276,0,0,0,.256-.92,1.832,1.832,0,0,0-.768-1.447,6.366,6.366,0,0,0-2.3-1.315,10.766,10.766,0,0,1-3.583-2.367,4.923,4.923,0,0,1-1.279-3.156v-.526a4.3,4.3,0,0,1,2.3-3.813,9.426,9.426,0,0,1,4.479-1.052,12.466,12.466,0,0,1,2.048.263,10.583,10.583,0,0,1,2.176.658v2.893c-.768-.263-1.28-.526-1.92-.789a6.872,6.872,0,0,0-2.048-.394,2.358,2.358,0,0,0-1.024.263,3.4,3.4,0,0,0-.768.657c0,.132-.128.263-.128.395s-.128.263-.128.394c0,.657.768,1.315,2.176,1.71,1.792.921,3.071,1.71,3.711,2.1a5.312,5.312,0,0,1,2.3,4.34v.526a4.914,4.914,0,0,1-2.815,4.077,9.13,9.13,0,0,1-3.712.9v5.284Zm0-23.277v-5.523h1.791v5.523ZM131.976,83.012V30.046C131.976-25.862,175.252-70,230.067-70s98.091,44.138,98.091,100.046V80.069c0,55.908-43.275,100.046-98.091,100.046S131.976,135.977,131.976,83.012Z" transform="translate(-13.69 70)"/>
</svg>
