<svg xmlns="http://www.w3.org/2000/svg" viewBox="0 0 465.792 512">
  <path id="Path_7" data-name="Path 7" d="M465.792,187.52V494.661a16.781,16.781,0,0,1-4.885,12.5,17.24,17.24,0,0,1-12.5,4.885H322.381a16.781,16.781,0,0,1-12.5-4.885c-3.126-3.126-4.689-7.425-4.689-12.5V306.117H159.823V494.661a17.422,17.422,0,0,1-4.689,12.5,17.24,17.24,0,0,1-12.5,4.885H16.217a15.22,15.22,0,0,1-11.528-4.885C1.563,504.039,0,499.936,0,494.661V187.52c0-5.666,1.954-10.16,5.666-13.481L218.047,3.86q11.43-7.62,21.1,0l220,170.178C463.643,177.164,465.792,181.658,465.792,187.52Z" transform="translate(0 -0.05)"/>
</svg>
