<svg xmlns="http://www.w3.org/2000/svg" viewBox="0 0 512 432"><title>Asset 2</title><g id="Layer_2" data-name="Layer 2"><g id="Layer_1-2" data-name="Layer 1"><g id="Page-1"><g id="logout"><path id="Union_4" data-name="Union 4" d="M328,0a24.07,24.07,0,0,1,24,24v96a24,24,0,1,1-48,0V48H48V384H304V312a24,24,0,1,1,48,0v96a24.07,24.07,0,0,1-24,24H24A24.07,24.07,0,0,1,0,408V24A24.07,24.07,0,0,1,24,0ZM433,127l72,72c.6.6,1,1.2,1.6,1.8.2.2.4.6.6.8.2.4.6.6.8,1s.4.6.6,1,.4.6.6,1a4.38,4.38,0,0,0,.6,1c.2.4.4.6.4,1,.2.4.2.8.4,1,.2.4.2.8.4,1.2a2.17,2.17,0,0,1,.2,1,2.53,2.53,0,0,1,.2,1.2c0,.4.2.8.2,1.2a8.64,8.64,0,0,0,.2,1c0,.8.2,1.6.2,2.4a9.75,9.75,0,0,1-.2,2.4,8.68,8.68,0,0,1-.2,1c0,.4-.2.8-.2,1.2s-.2.8-.2,1.2a8.72,8.72,0,0,1-.2,1c-.2.4-.2.8-.4,1.2s-.2.8-.4,1c-.2.4-.4.6-.4,1a4.36,4.36,0,0,1-.6,1c-.2.4-.4.6-.6,1a4.39,4.39,0,0,1-.6,1,3.52,3.52,0,0,1-.8,1c-.2.2-.4.6-.6.8A6.08,6.08,0,0,1,505,232l-72,72a24.08,24.08,0,0,1-17,7,24.42,24.42,0,0,1-17-7,24,24,0,0,1,0-34l31-30H152a24,24,0,0,1,0-48H430l-31-31a24,24,0,1,1,34-34Z"/></g></g></g></g></svg>