<?xml version="1.0" encoding="UTF-8"?>
<svg width="14px" height="16px" viewBox="0 0 14 16" version="1.1" xmlns="http://www.w3.org/2000/svg" xmlns:xlink="http://www.w3.org/1999/xlink">
    <!-- Generator: Sketch 50.2 (55047) - http://www.bohemiancoding.com/sketch -->
    <title>Path_49</title>
    <desc>Created with Sketch.</desc>
    <defs></defs>
    <g id="Page-1" stroke="none" stroke-width="1" fill="none" fill-rule="evenodd">
        <g id="password" fill="#000000">
            <path d="M11.412,16 L1.9,16 C0.825063909,15.967857 -0.0229879096,15.0751708 3.26561694e-16,14 L3.26561694e-16,6 C-0.0229879096,4.92482916 0.825063909,4.03214304 1.9,4 L2.851,4 C2.80447494,1.84944585 4.50088747,0.0637484471 6.651,8.8817842e-16 C8.80111253,0.0637484471 10.4975251,1.84944585 10.451,4 L11.402,4 C12.4769361,4.03214304 13.3249879,4.92482916 13.302,6 L13.302,14 C13.3250959,15.0710226 12.4835963,15.9619698 11.413,16 L11.412,16 Z M6.657,2 C5.58206391,2.03214304 4.73401209,2.92482916 4.757,4 L8.557,4 C8.57998791,2.92482916 7.73193609,2.03214304 6.657,2 Z M6.657,8 C5.5524305,8 4.657,8.8954305 4.657,10 C4.657,11.1045695 5.5524305,12 6.657,12 C7.7615695,12 8.657,11.1045695 8.657,10 C8.657,8.8954305 7.7615695,8 6.657,8 Z" id="Path_49"></path>
        </g>
    </g>
</svg>