<?xml version="1.0" encoding="UTF-8"?>
<svg width="54px" height="64px" viewBox="0 0 54 64" version="1.1" xmlns="http://www.w3.org/2000/svg" xmlns:xlink="http://www.w3.org/1999/xlink">
    <!-- Generator: Sketch 50.2 (55047) - http://www.bohemiancoding.com/sketch -->
    <title>Group</title>
    <desc>Created with Sketch.</desc>
    <defs></defs>
    <g id="Page-1" stroke="none" stroke-width="1" fill="none" fill-rule="evenodd">
        <g id="Group" transform="translate(0.000000, -1.000000)" fill="#525252" fill-rule="nonzero">
            <g id="ring">
                <path d="M2.817,35.106 C2.31592595,34.5695234 1.47831183,34.5309053 0.93,35.019 C0.78,35.156 0.618,35.306 0.455,35.444 C-0.0985900271,35.9315533 -0.154441337,36.7746847 0.33,37.331 C0.583264709,37.6176172 0.947518415,37.7815314 1.33,37.781 C1.65343334,37.7814258 1.96541061,37.6612699 2.205,37.444 C2.38,37.281 2.555,37.132 2.73,36.982 C2.993697,36.7467829 3.15154401,36.4152716 3.16791358,36.062291 C3.18428314,35.7093105 3.05779549,35.3646131 2.817,35.106 Z" id="Path_857"></path>
                <path d="M3.716,34.168 C4.32361189,34.5873849 5.15592472,34.4367462 5.578,33.831 C7.778,30.682 8.103,27.557 8.54,21.871 C8.57787017,21.3954795 8.35917647,20.9358769 7.96629871,20.6653201 C7.57342095,20.3947634 7.0660466,20.3543564 6.63529868,20.5593201 C6.20455076,20.7642839 5.91587014,21.1834795 5.878,21.659 C5.466,27.02 5.191,29.707 3.391,32.307 C3.18167429,32.5950131 3.09808435,32.9555979 3.15933625,33.3063357 C3.22058816,33.6570735 3.42144604,33.9679831 3.716,34.168 Z" id="Path_858"></path>
                <path d="M44.458,19.476 C44.5909352,20.0878893 45.131838,20.5247724 45.758,20.526 C45.8501256,20.5238782 45.9420021,20.5155258 46.033,20.501 C46.3797644,20.4271765 46.6828343,20.2182544 46.8751871,19.9204359 C47.0675399,19.6226174 47.1333271,19.2604409 47.058,18.914 C47.008,18.652 46.946,18.402 46.883,18.139 C46.7001937,17.4246197 45.9728803,16.9936937 45.2585,17.1765 C44.5441197,17.3593063 44.1131937,18.0866197 44.296,18.801 C44.358,19.021 44.408,19.246 44.458,19.476 Z" id="Path_859"></path>
                <path d="M52.845,35.431 C48.945,32.182 48.083,29.02 47.545,22.708 C47.5199589,22.2229651 47.2325196,21.7901469 46.7951718,21.5789294 C46.3578239,21.367712 45.840118,21.4116847 45.4446591,21.6936389 C45.0492001,21.975593 44.838877,22.45069 44.896,22.933 C45.483,29.744 46.571,33.656 51.145,37.468 C51.3817903,37.6704989 51.683433,37.7812195 51.995,37.78 C52.5561966,37.7832121 53.058642,37.4327868 53.2495283,36.9050422 C53.4404147,36.3772975 53.2783989,35.7865352 52.845,35.43 L52.845,35.431 Z" id="Path_860"></path>
                <path d="M49.895,40.267 C49.8818768,40.2295424 49.8607151,40.1954106 49.833,40.167 C49.5468414,39.6329418 49.1241321,39.1843524 48.608,38.867 C45.008,36.792 42.834,31.144 42.134,22.067 C41.6071425,15.4613808 36.9848675,9.89999977 30.587,8.174 C31.8383146,6.22338353 31.4668407,3.64976517 29.7149927,2.13262267 C27.9631446,0.61548018 25.3628554,0.61548018 23.6110073,2.13262267 C21.8591593,3.64976517 21.4876854,6.22338353 22.739,8.174 C16.3401232,9.9093713 11.7195045,15.4750802 11.191,22.084 C10.491,31.145 8.317,36.794 4.717,38.884 C3.5267906,39.7423875 2.80206323,41.1042987 2.755,42.571 C2.605,43.746 2.555,46.22 3.48,47.145 C3.72862132,47.3932021 4.06569293,47.5324195 4.417,47.532 L18.639,47.532 C19.290375,51.4492148 22.6789975,54.3208889 26.65,54.3208889 C30.6210025,54.3208889 34.009625,51.4492148 34.661,47.532 L48.883,47.532 C49.2343071,47.5324195 49.5713787,47.3932021 49.82,47.145 C50.745,46.22 50.707,43.745 50.545,42.558 C50.4774159,41.759687 50.2567311,40.981858 49.895,40.267 Z M26.662,3.662 C27.7665695,3.662 28.662,4.5574305 28.662,5.662 C28.662,6.7665695 27.7665695,7.662 26.662,7.662 C25.5574305,7.662 24.662,6.7665695 24.662,5.662 C24.6647483,4.55857088 25.5585709,3.66474828 26.662,3.662 Z M26.662,51.653 C24.1637239,51.6503957 21.9862614,49.951596 21.376,47.529 L31.961,47.529 C31.3457648,49.9538193 29.1636519,51.6520707 26.662,51.653 Z M47.947,44.866 L5.392,44.866 C5.32334151,44.2765536 5.31898256,43.6813888 5.379,43.091 C5.36916141,42.3958419 5.60342179,41.719247 6.041,41.179 C10.503,38.605 13.065,32.418 13.841,22.279 C14.3203326,15.5509119 19.9183588,10.33752 26.6635,10.33752 C33.4086412,10.33752 39.0066674,15.5509119 39.486,22.279 C39.6940148,26.3476355 40.4940956,30.3642094 41.861,34.202 L36.847,34.202 C36.3693359,34.202 35.927956,34.4568307 35.689124,34.8705 C35.4502919,35.2841692 35.4502919,35.7938308 35.689124,36.2075 C35.927956,36.6211693 36.3693359,36.876 36.847,36.876 L43.133,36.876 C43.6881903,37.848397 44.3690462,38.7434283 45.158,39.538 L31.858,39.538 C31.1195953,39.538 30.5210001,40.1365953 30.5210001,40.875 C30.5210001,41.6134047 31.1195953,42.212 31.858,42.212 L47.796,42.212 C47.8724816,42.5025738 47.9226837,42.7994355 47.946,43.099 C48.0099788,43.6862446 48.0103141,44.2786834 47.947,44.866 Z" id="Path_861"></path>
                <path d="M39.998,62.326 L13.34,62.326 C12.6015953,62.326 12.003,62.9245953 12.003,63.663 C12.003,64.4014047 12.6015953,65 13.34,65 L39.997,65 C40.7354047,65 41.334,64.4014047 41.334,63.663 C41.334,62.9245953 40.7354047,62.326 39.997,62.326 L39.998,62.326 Z" id="Path_862"></path>
                <path d="M27.062,39.53 L26.262,39.53 C25.5235953,39.53 24.925,40.1285953 24.925,40.867 C24.925,41.6054047 25.5235953,42.204 26.262,42.204 L27.062,42.204 C27.8004047,42.204 28.399,41.6054047 28.399,40.867 C28.399,40.1285953 27.8004047,39.53 27.062,39.53 Z" id="Path_863"></path>
            </g>
        </g>
    </g>
</svg>