<svg xmlns="http://www.w3.org/2000/svg" viewBox="0 0 512 512">
  <path id="Union_3" data-name="Union 3" d="M35.781,328.3C7.087,328.3,11.991,435-31,435c-14.19,0-22.224-21.3-22.224-64,0-64-66.778-80.6-66.778-149.3-.209-30.4,16.8-58.5,44.553-73.2,42.467-27.5,111.227,9.2,111.227,9.2s68.865-36.7,111.331-9.2c27.65,14.7,44.762,42.8,44.449,73.2,0,68.7-66.778,85.3-66.778,149.3,0,42.7-7.93,64-22.224,64C59.57,435,64.474,328.3,35.781,328.3Zm126.982.1c3.757-5.1,7.721-10.5,12.208-16a136.176,136.176,0,0,0,38.919-90.7c-.417-37.3-20.973-71.6-54.362-90.7A92.119,92.119,0,0,0,108.3,117.1,192.8,192.8,0,0,0,35.781,134a190.239,190.239,0,0,0-72.517-17.1,113.3,113.3,0,0,0-16.486,1.3V-13H369.67C381.982-13,392-3.4,392,8.3V307.1c0,11.7-9.912,21.3-22.224,21.3Zm95.68-64.1h89V221.6h-89ZM236.114,179H347.445V136.3H236.114ZM213.889,93.7H347.445V51H213.889ZM-53.222-34.4V-55.7C-53.222-67.4-43.205-77-31-77H102.558c12.313,0,22.224,9.6,22.224,21.3v21.3Z" transform="translate(120.002 77)"/>
</svg>
