<?xml version="1.0" encoding="UTF-8"?>
<svg width="487px" height="513px" viewBox="0 0 487 513" version="1.1" xmlns="http://www.w3.org/2000/svg" xmlns:xlink="http://www.w3.org/1999/xlink">
    <!-- Generator: Sketch 50.2 (55047) - http://www.bohemiancoding.com/sketch -->
    <title>tooth_search</title>
    <desc>Created with Sketch.</desc>
    <defs></defs>
    <g id="Page-1" stroke="none" stroke-width="1" fill="none" fill-rule="evenodd">
        <g id="tooth_search" fill="#000000" fill-rule="nonzero">
            <path d="M247.21,395.88 C244.690096,379.10898 240.895776,362.554381 235.86,346.36 C230.881932,362.502007 227.088523,378.985786 224.51,395.68 C214.51,447.68 203.51,512 150.18,512 C112.18,512 85.89,455.35 85.89,404.82 C83.0814604,371.061252 70.5803131,338.8326 49.89,312.01 C19.3922634,270.411961 2.08526521,220.61602 0.21,169.07 C-2.703779,110.705969 25.3033637,55.1133295 73.94,22.72 C134.61,-18.06 209.55,6.45 235.94,17.1 C262.26,6.45 337.29,-18.06 397.86,22.62 C446.513735,55.0141355 474.530199,110.621593 471.61,169 C470.471453,212.960865 456.889344,255.697524 432.44,292.25 L389.55,249.36 C419.496953,203.537283 409.909461,142.485512 367.358509,108.047773 C324.807556,73.6100348 263.098392,76.9593223 224.524659,115.800133 C185.950927,154.640944 183.027504,216.371749 217.758019,258.684073 C252.488534,300.996397 313.605004,310.162411 359.22,279.9 L410.38,331 L421.89,312 L433.34,293.32 L486.88,346.66 L456.44,377.2 L410.44,331.2 C395.580368,353.004834 387.073782,378.510745 385.87,404.87 C385.87,455.5 359.55,512.05 321.58,512.05 C268.2,512 257.26,447.72 247.21,395.88 Z M236,190.47 C236,154.963613 264.783613,126.18 300.29,126.18 C335.796387,126.18 364.58,154.963613 364.58,190.47 C364.58,225.976387 335.796387,254.76 300.29,254.76 C264.783613,254.76 236,225.976387 236,190.47 Z" id="Union_2"></path>
        </g>
    </g>
</svg>