<?xml version="1.0" encoding="UTF-8"?>
<svg width="40px" height="40px" viewBox="0 0 40 40" version="1.1" xmlns="http://www.w3.org/2000/svg" xmlns:xlink="http://www.w3.org/1999/xlink">
    <!-- Generator: Sketch 50.2 (55047) - http://www.bohemiancoding.com/sketch -->
    <title>ursmiles</title>
    <desc>Created with Sketch.</desc>
    <defs>
        <linearGradient x1="50%" y1="100%" x2="50%" y2="0%" id="linearGradient-1">
            <stop stop-color="#FE702E" offset="0%"></stop>
            <stop stop-color="#FAA527" offset="100%"></stop>
        </linearGradient>
    </defs>
    <g id="Page-1" stroke="none" stroke-width="1" fill="none" fill-rule="evenodd">
        <g id="ursmiles" fill-rule="nonzero">
            <g id="Group" fill="url(#linearGradient-1)">
                <path d="M20,0 C31.045695,6.76353751e-16 40,8.954305 40,20 C40,31.045695 31.045695,40 20,40 C8.954305,40 1.3527075e-15,31.045695 0,20 C-1.3527075e-15,8.954305 8.954305,2.02906125e-15 20,0 Z" id="Path_750-2"></path>
            </g>
            <g id="Group_1073" transform="translate(11.428000, 11.429000)" fill="#FFFFFF">
                <path d="M8.571,0 C3.83736741,-2.89851286e-16 5.797028e-16,3.83736741 0,8.571 C-5.797028e-16,13.3046326 3.83736741,17.142 8.571,17.142 C13.3046326,17.142 17.142,13.3046326 17.142,8.571 C17.1451907,6.29685283 16.2432018,4.11493111 14.6351354,2.50686464 C13.0270689,0.898798165 10.8451472,-0.00319067069 8.571,0 Z M12.142,11.465 C11.8950435,12.1589365 11.6075486,12.8377717 11.281,13.498 C11.281,13.498 10.681,14.707 9.834,13.626 L9.046,12.417 C9.046,12.417 8.646,11.41 7.965,12.527 L7.379,13.571 C7.379,13.571 6.628,14.908 5.804,13.371 C4.99080783,11.5243427 4.37732338,9.59605714 3.974,7.619 C3.974,7.619 3.516,5.311 4.835,4.579 C5.75284129,4.19487203 6.79445021,4.24183432 7.674,4.707 C8.29988951,4.90383315 8.97111049,4.90383315 9.597,4.707 C9.597,4.707 12.397,3.315 13.097,5.843 C13.114,5.824 13.681,7.637 12.143,11.465 L12.142,11.465 Z" id="Path_643"></path>
                <g id="Group_759" transform="translate(10.201000, 4.293000)">
                    <g id="Group_758" transform="translate(0.000000, 0.769000)">
                        <path d="M0.11,3.4 L0,2.887 C0.122204273,2.9553241 0.251245118,3.01062732 0.385,3.052 C0.53629407,3.11292375 0.697900111,3.14415853 0.861,3.144 C0.922573656,3.14803329 0.984392186,3.14195278 1.044,3.126 C1.09138177,3.11107126 1.13092872,3.07799563 1.154,3.034 C1.18406038,2.99625689 1.19709851,2.94772609 1.19,2.9 C1.18719829,2.81964119 1.14636506,2.74539897 1.08,2.7 C0.983859137,2.61680643 0.871485496,2.55449014 0.75,2.517 C0.558744575,2.44223228 0.38433729,2.33004046 0.237,2.187 C0.124612959,2.06740907 0.0595684008,1.91101778 0.054,1.747 L0.054,1.674 C0.0558089695,1.44914702 0.183189703,1.24417984 0.384,1.143 C0.582698571,1.04306059 0.802609258,0.992628653 1.025,0.996 C1.12350547,1.00040212 1.22149253,1.01277591 1.318,1.033 C1.42460377,1.05268529 1.52884313,1.08352137 1.629,1.125 L1.629,1.525 C1.519,1.488 1.446,1.452 1.354,1.415 C1.25960304,1.38223127 1.16085452,1.36369485 1.061,1.36 C1.00986294,1.36128297 0.959651071,1.37392134 0.914,1.397 C0.872985836,1.42205867 0.835915726,1.45306276 0.804,1.489 C0.804,1.507 0.786,1.526 0.786,1.544 C0.786,1.562 0.768,1.581 0.768,1.599 C0.768,1.691 0.878,1.782 1.079,1.837 C1.335,1.965 1.519,2.075 1.61,2.13 C1.8122683,2.26329276 1.93574671,2.48779898 1.94,2.73 L1.94,2.803 C1.91968692,3.05091645 1.76657357,3.26833741 1.54,3.371 C1.3332353,3.46420467 1.10762143,3.50802648 0.881,3.499 C0.758195663,3.49665944 0.635788105,3.4842849 0.515,3.462 C0.376866648,3.47900669 0.23671942,3.45755205 0.11,3.4 Z" id="Path_644"></path>
                    </g>
                    <rect id="Rectangle_1477" x="0.751" y="1" width="1" height="1"></rect>
                    <rect id="Rectangle_1478" x="0.751" y="4.187" width="1" height="1"></rect>
                </g>
            </g>
        </g>
    </g>
</svg>